@startuml
title 实验管理平台--类图
class users {
    <b>user_id</b> （用户ID）
    password （平台密码）
    name （姓名）
    github_username （GitHub账号）
}
class teachers{
    <b>teacher_id</b> （老师工号）
    course (老师已选科目)
}
class students{
    <b>student_id</b> （学号）
    class （班级）
    course (学生已选科目)
    result_sum（成绩汇总）
}
users <|- students
users <|-- teachers

class course{
    <b>student_id<b>
    <b>test_id</b>
    <b>teacher_id<b>
    courseNo (课程编号)
    course_name (课程名称)
    status (状态)
    addTime (增加日期)
}    

class grades {
    <b>student_id</b> （学号）
    <b>test_id</b> （实验编号）
    result （分数）
    memo （评价）
    update_date （评改日期）
}

class tests {
    <b>test_id</b> （实验编号）
    title (实验名称)
}
students "1" -- "n"  course
teachers "1" -- "n"  course
tests "1" -- "n"  course
students "1" -- "n"  grades
tests "1" -- "n"  grades
@enduml